HIERARCHY
ROOT Hips
{
  OFFSET 7.333 -26.027 -164.856
  CHANNELS 6 Xposition Yposition Zposition Zrotation Xrotation Yrotation
  JOINT LeftUpLeg
  {
    OFFSET 10.092 0.000 0.000
    CHANNELS 3 Zrotation Xrotation Yrotation
    JOINT LeftLeg
    {
      OFFSET 0.000 -38.160 -0.000
    CHANNELS 3 Zrotation Xrotation Yrotation
      JOINT LeftFoot
      {
        OFFSET -0.000 -24.040 0.000
    CHANNELS 3 Zrotation Xrotation Yrotation
        End Site
        {
          OFFSET -0.000 0.000 12.945
        }
      }
    }
  }
  JOINT RightUpLeg
  {
    OFFSET -10.092 -0.000 0.000
    CHANNELS 3 Zrotation Xrotation Yrotation
    JOINT RightLeg
    {
      OFFSET 0.000 -33.046 0.000
    CHANNELS 3 Zrotation Xrotation Yrotation
      JOINT RightFoot
      {
        OFFSET 0.000 -22.031 -0.000
    CHANNELS 3 Zrotation Xrotation Yrotation
        End Site
        {
          OFFSET 0.000 -0.000 11.863
        }
      }
    }
  }
  JOINT Spine
  {
    OFFSET -0.000 16.511 0.000
    CHANNELS 3 Zrotation Xrotation Yrotation
    JOINT LeftShoulder
    {
      OFFSET 0 16.511 0
    CHANNELS 3 Zrotation Xrotation Yrotation
      JOINT LeftArm
      {
        OFFSET 16.337 0.000 0.000
    CHANNELS 3 Zrotation Xrotation Yrotation
        JOINT LeftForeArm
        {
          OFFSET 0.000 -24.030 0.000
    CHANNELS 3 Zrotation Xrotation Yrotation
          JOINT LeftHand
          {
            OFFSET 0.000 -17.629 -0.000
    CHANNELS 3 Zrotation Xrotation Yrotation
            End Site
            {
              OFFSET 0.000 -11.753 -0.000
            }
          }
        }
      }
    }
    JOINT RightShoulder
    {
      OFFSET 0 16.511 0
    CHANNELS 3 Zrotation Xrotation Yrotation
      JOINT RightArm
      {
        OFFSET -16.337 0.000 0.000
    CHANNELS 3 Zrotation Xrotation Yrotation
        JOINT RightForeArm
        {
          OFFSET -0.000 -19.534 0.000
    CHANNELS 3 Zrotation Xrotation Yrotation
          JOINT RightHand
          {
            OFFSET 0.000 -19.514 -0.000
    CHANNELS 3 Zrotation Xrotation Yrotation
            End Site
            {
              OFFSET 0.000 -13.010 -0.000
            }
          }
        }
      }
    }
    JOINT Neck
    {
      OFFSET -0.000 16.511 0.000
    CHANNELS 3 Zrotation Xrotation Yrotation
      JOINT Head
      {
        OFFSET -0.000 12.493 -0.000
    CHANNELS 3 Zrotation Xrotation Yrotation
        End Site
        {
          OFFSET -0.000 8.328 -0.000
        }
      }
    }
  }
}
MOTION
Frames: 21
Frame Time: 0.0333333
0 0 0 1.098284e+00 -1.345830e+00 -8.137510e+00 -2.582375e+00 1.352957e+01 6.054826e-01 1.258165e+00 -1.362742e+01 -2.947320e-01 0 0 1.832913e-07 -1.053968e+00 1.544000e+01 4.425549e-01 3.266610e-01 -1.719390e+01 -1.735860e-01 0 0 7.016625e-09 -5.845244e-08 3.527883e-07 -2.100000e-05 0 0 0 -4.399675e+00 -4.099311e+01 -9.668103e+01 1.098681e+02 -2.308827e+01 1.252196e+02 3.363267e-08 -4.364571e-07 3.174339e-08 0 0 0 3.024586e+00 -4.327743e+01 1.180977e+02 -9.732553e+01 -1.590069e+01 -1.332213e+02 5.442797e-08 NaN -5.228997e-08 -1.715940e-01 -1.718095e+00 -5.745742e-03 0 0 NaN 
0 0 0 9.394291e-01 -1.525625e+00 -8.289060e+00 -2.731224e+00 1.448162e+01 6.840517e-01 1.815500e+00 -1.468070e+01 -2.105840e-01 0 0 NaN -8.115393e-01 1.662165e+01 3.579622e-01 1.533701e+00 -1.870638e+01 5.247400e-02 0 0 -7.825474e-09 -1.119835e-07 4.175456e-07 2.678084e-06 0 0 0 -9.172402e-01 -3.547711e+01 -9.081878e+01 1.128919e+02 -3.729379e+01 1.191910e+02 1.583888e-08 NaN -5.697498e-08 0 0 0 4.987858e+00 -3.850007e+01 1.162471e+02 -1.005400e+02 -2.261762e+01 -1.319772e+02 6.645945e-08 NaN -1.171428e-07 5.599306e-02 -1.897402e+00 -7.210928e-03 0 0 NaN 
0 0 0 7.520820e-01 -1.258755e+00 -7.745184e+00 -2.678225e+00 1.396440e+01 6.468774e-01 2.024277e+00 -1.401140e+01 -1.338070e-01 0 0 NaN -4.227280e-01 1.561490e+01 NaN 1.127520e+00 -1.715610e+01 5.840100e-02 0 0 -1.277531e-08 -1.776658e-07 6.836184e-07 -5.200000e-05 0 0 0 2.781766e+00 -3.340306e+01 -8.287820e+01 1.176917e+02 -4.766270e+01 1.203898e+02 2.975375e-08 NaN -4.960106e-08 0 0 0 NaN -2.949430e+01 1.000720e+02 -1.132520e+02 -3.208430e+01 -1.317128e+02 NaN -1.312085e-07 NaN 8.224662e-02 -2.217843e+00 -5.195250e-03 0 0 5.590843e-08 
0 0 0 9.280160e-01 -1.441904e+00 -7.644792e+00 -2.729284e+00 1.375120e+01 6.496676e-01 1.639080e+00 -1.350160e+01 -2.368200e-01 0 0 6.289532e-08 -4.717580e-01 1.629380e+01 3.567861e-01 2.258890e+00 -1.803320e+01 1.754700e-01 0 0 -7.922681e-08 -2.174148e-08 5.508926e-07 -4.200000e-05 0 0 0 3.078404e+00 -3.226884e+01 -8.191745e+01 1.219681e+02 -4.616180e+01 1.259850e+02 3.922171e-08 6.624210e-08 -1.678538e-08 0 0 0 -1.143009e+01 -2.648930e+01 9.129910e+01 -1.189300e+02 -4.067724e+01 -1.322967e+02 -2.094283e-08 NaN NaN -1.186060e-01 -2.108883e+00 -4.874219e-03 0 0 2.005194e-08 
0 0 0 4.893480e-01 -7.162924e-01 -7.919907e+00 -2.271983e+00 1.328071e+01 5.206011e-01 2.247420e+00 -1.373770e+01 1.005800e-02 0 0 1.863354e-08 -4.566774e-01 1.559718e+01 3.673554e-01 1.721640e+00 -1.784326e+01 2.984600e-01 0 0 NaN -2.719846e-08 7.687040e-07 3.978405e-06 0 0 0 3.741607e+00 -3.252750e+01 -8.059625e+01 1.247162e+02 -4.566000e+01 1.292781e+02 4.160757e-08 -7.369315e-08 -5.124903e-09 0 0 0 -1.624254e+01 -2.705190e+01 8.948610e+01 -1.194030e+02 -4.453553e+01 -1.323141e+02 4.810313e-08 NaN -4.533956e-08 -2.955720e-01 -1.899175e+00 -5.952466e-03 0 0 1.085185e-07 
0 0 0 1.071955e-01 -7.420330e-01 -8.542593e+00 -1.572574e+00 1.399831e+01 3.791238e-01 1.967789e+00 -1.524743e+01 1.171140e-01 0 0 NaN -6.378705e-01 1.594827e+01 3.391658e-01 1.688911e+00 -1.887693e+01 4.705380e-01 0 0 NaN -2.681859e-07 6.531658e-07 -4.206877e-05 0 0 0 -2.976208e+00 -3.786985e+01 -9.468630e+01 1.134550e+02 -3.142964e+01 1.240244e+02 5.008859e-08 -1.886321e-07 -2.302044e-08 0 0 0 NaN -3.237767e+01 9.543852e+01 -1.126570e+02 -3.755878e+01 -1.298910e+02 3.762731e-08 -6.004228e-08 -4.978124e-08 2.927116e-02 -1.920871e+00 -7.377332e-03 0 0 6.687751e-08 
0 0 0 8.540941e-02 -1.773220e+00 -7.642961e+00 -1.477832e+00 1.488910e+01 3.793720e-01 2.053601e+00 -1.509340e+01 1.616610e-01 0 0 5.850653e-08 -8.886671e-01 1.720483e+01 3.710474e-01 7.365995e-01 -1.947614e+01 3.402806e-01 0 0 1.335449e-08 -7.610340e-08 0 4.362212e-06 0 0 0 -2.073758e+00 -4.124390e+01 -9.250642e+01 1.147960e+02 -2.478200e+01 1.310389e+02 1.209540e-08 NaN -3.880592e-08 0 0 0 1.106290e+01 -4.001786e+01 1.033557e+02 -1.059750e+02 -2.343760e+01 -1.317503e+02 1.535845e-07 -1.097071e-07 -2.044666e-07 3.288110e-01 -2.118754e+00 -5.069191e-03 0 0 4.957387e-08 
0 0 0 5.676139e-01 -9.512612e-01 -8.542768e+00 -2.766569e+00 1.300790e+01 6.228796e-01 3.023578e+00 -1.396496e+01 7.880800e-02 0 0 3.036484e-08 -9.480380e-01 1.646449e+01 3.760452e-01 2.878450e+00 -1.978410e+01 4.612154e-01 0 0 2.873311e-08 -7.104588e-07 2.486670e-07 -1.807180e-05 0 0 0 7.157497e+00 -4.193963e+01 -7.742949e+01 1.200523e+02 -2.028948e+01 1.419789e+02 1.293956e-08 NaN -2.779307e-07 0 0 0 1.033995e+01 -4.606295e+01 9.693226e+01 -1.084420e+02 -1.894672e+01 -1.406228e+02 NaN NaN NaN -1.195400e-02 -8.575791e-01 -4.872153e-03 0 0 2.140378e-07 
0 0 0 -1.243869e-01 -1.413982e+00 -1.129238e+01 -1.874400e+00 1.350240e+01 4.386368e-01 2.677592e+00 -1.400728e+01 2.073020e-01 0 0 4.016313e-08 -1.044198e+00 1.465622e+01 3.518032e-01 2.958030e+00 -1.666992e+01 6.354232e-01 0 0 -5.293851e-09 NaN 7.535078e-07 -3.561955e-05 0 0 0 2.222254e+01 -3.731462e+01 -5.176607e+01 1.219046e+02 -1.659648e+01 1.469950e+02 4.164814e-08 -5.926945e-08 NaN 0 0 0 4.452222e+00 -4.839543e+01 8.631740e+01 -1.088488e+02 -1.020653e+01 -1.564571e+02 NaN -5.494669e-08 NaN 4.296201e-01 1.542291e-01 -6.295596e-03 0 0 -1.000000e-07 
0 0 0 -3.004720e-01 -1.504114e+00 -1.227870e+01 -1.463540e+00 1.419758e+01 3.590110e-01 2.390468e+00 -1.484830e+01 2.489640e-01 0 0 4.683295e-08 -1.257572e+00 1.363223e+01 3.427222e-01 1.952867e+00 -1.483380e+01 5.704652e-01 0 0 1.432375e-08 NaN 5.272485e-07 2.000000e-06 0 0 0 3.209820e+01 -3.052711e+01 -3.281475e+01 1.173587e+02 -1.191200e+01 1.469967e+02 7.190693e-08 -1.064120e-08 NaN 0 0 0 -7.579930e+00 -4.669956e+01 6.696683e+01 -1.101734e+02 -2.878979e+00 -1.610905e+02 -1.131327e-07 -6.775637e-08 -2.193547e-08 4.609150e-01 6.309090e-01 -7.696894e-03 0 0 NaN 
0 0 0 -1.393667e-01 -1.508741e+00 -1.249110e+01 -1.685402e+00 1.308240e+01 3.816040e-01 2.381510e+00 -1.279625e+01 1.637450e-01 0 0 5.006886e-08 -1.491436e+00 1.311402e+01 4.008990e-01 1.783970e+00 -1.425370e+01 2.447600e-01 0 0 5.529590e-09 -1.512896e-07 3.181020e-07 2.692702e-05 0 0 0 3.683365e+01 -2.074015e+01 -1.742831e+01 1.101560e+02 -1.176070e+01 1.372448e+02 NaN -1.025630e-07 9.406337e-08 0 0 0 -2.240000e+01 -3.955641e+01 5.428294e+01 -1.106913e+02 5.384162e+00 7.409379e+01 NaN -9.219314e-08 -4.762404e-08 5.463972e-01 6.820749e-01 -6.075024e-03 0 0 7.831114e-09 
0 0 0 2.983176e-01 -8.823925e-01 -1.313369e+01 -1.584499e+00 1.193289e+01 3.278309e-01 1.490614e+00 -1.158260e+01 -1.202000e-02 0 0 4.775745e-08 -1.259322e+00 1.231487e+01 1.568928e-01 1.363880e+00 -1.364550e+01 3.761270e-01 0 0 1.398715e-08 -3.995522e-08 4.115164e-07 -4.932371e-05 0 0 0 4.023688e+01 -1.184390e+01 -5.186844e+00 1.008234e+02 -1.032017e+01 1.208407e+02 2.574440e-08 7.964479e-08 -4.925935e-09 0 0 0 -3.043103e+01 -3.282480e+01 4.697201e+01 -1.104233e+02 1.197368e+01 NaN NaN NaN -9.996241e-09 5.921559e-01 8.086542e-01 -3.808001e-03 0 0 -9.608100e-09 
0 0 0 3.673340e-01 -3.680830e-01 -1.348390e+01 -1.618981e+00 1.228300e+01 3.443189e-01 1.735550e+00 -1.321450e+01 3.572800e-02 0 0 NaN -1.236818e+00 1.192644e+01 -1.305841e-01 9.834581e-01 -1.411950e+01 4.646919e-01 0 0 1.036172e-08 -6.838320e-08 6.444872e-07 -3.600000e-05 0 0 0 3.971093e+01 -3.561742e+00 4.627269e+00 9.297380e+01 -1.287052e+01 9.764406e+01 1.064352e-08 NaN -7.241211e-08 0 0 0 -3.232774e+01 -2.562412e+01 4.102190e+01 -1.100530e+02 1.496354e+01 NaN 3.589221e-08 -1.733348e-07 -1.803518e-08 6.012529e-01 1.085932e+00 -6.545411e-03 0 0 5.527996e-08 
0 0 0 6.624163e-01 -7.895203e-02 -1.401230e+01 -2.216992e+00 1.202060e+01 4.623767e-01 2.256304e+00 -1.403970e+01 2.082369e-02 0 0 4.329282e-08 -1.138519e+00 1.163696e+01 NaN 2.211840e+00 -1.480310e+01 7.542670e-01 0 0 4.722120e-09 -2.056665e-07 5.293956e-23 -4.700000e-05 0 0 0 3.633533e+01 3.095986e+00 1.362528e+01 8.870020e+01 -1.783110e+01 8.690228e+01 -1.089266e-07 -1.293143e-07 -3.360385e-08 0 0 0 -3.029265e+01 -1.919461e+01 3.728433e+01 -1.118136e+02 1.339512e+01 7.129960e+01 5.234497e-08 NaN -2.163944e-07 7.107670e-01 1.221058e+00 -7.549419e-03 0 0 1.275937e-07 
0 0 0 7.306606e-01 1.497938e-01 -1.490300e+01 -2.135591e+00 1.191394e+01 4.415402e-01 1.608309e+00 -1.369694e+01 -1.144359e-01 0 0 4.988644e-08 -6.727562e-01 1.136726e+01 3.497357e-02 2.309727e+00 -1.471012e+01 4.667540e-01 0 0 3.840226e-07 7.875985e-09 3.599124e-07 9.007436e-06 0 0 0 3.299345e+01 7.874629e+00 2.157628e+01 8.727260e+01 -2.408104e+01 8.553440e+01 NaN -6.753554e-10 -6.840136e-09 0 0 0 -2.745120e+01 -1.651414e+01 3.855396e+01 -1.131335e+02 1.346322e+01 NaN 3.609680e-08 NaN NaN 4.728830e-01 1.392054e+00 -4.522261e-03 0 0 -4.619709e-07 
0 0 0 1.038453e+00 4.601730e-01 -1.443163e+01 -2.373600e+00 1.110524e+01 4.578240e-01 1.557580e+00 -1.298426e+01 -1.733710e-01 0 0 4.939063e-08 1.888975e-01 1.059389e+01 3.337361e-01 3.076172e+00 -1.435526e+01 NaN 0 0 NaN -7.470477e-08 3.779912e-07 -4.002412e-06 0 0 0 3.252266e+01 7.427904e+00 2.126668e+01 8.659643e+01 -2.353407e+01 8.409930e+01 NaN -1.076315e-07 -1.494452e-08 0 0 0 -2.690504e+01 -1.494741e+01 3.719672e+01 -1.136222e+02 1.160585e+01 NaN 1.237873e-07 -3.232887e-08 NaN 3.099770e-01 1.389487e+00 -5.433528e-03 0 0 NaN 
0 0 0 1.181490e+00 5.121950e-01 -1.397543e+01 -3.016562e+00 1.092190e+01 5.723440e-01 2.360750e+00 -1.312900e+01 -1.368690e-01 0 0 NaN -1.513660e-01 1.101040e+01 NaN 3.700950e+00 -1.541390e+01 4.862928e-01 0 0 NaN -1.998681e-07 3.639703e-07 -7.550811e-05 0 0 0 3.243645e+01 4.593680e+00 1.741006e+01 8.999540e+01 -2.108520e+01 9.067390e+01 3.275011e-08 NaN -1.386782e-08 0 0 0 -2.839633e+01 -1.940720e+01 4.017617e+01 -1.118645e+02 1.400827e+01 1.690581e+01 NaN -9.062913e-08 -3.328947e-08 5.174325e-01 1.451339e+00 -7.135153e-03 0 0 NaN 
0 0 0 1.010833e+00 4.299962e-01 -1.353863e+01 -2.802260e+00 1.079803e+01 5.255706e-01 2.516490e+00 -1.324290e+01 -5.362314e-02 0 0 NaN NaN 1.044600e+01 2.696163e-01 2.669050e+00 -1.418570e+01 4.699565e-01 0 0 -1.674859e-08 -5.469148e-08 5.835997e-07 -6.000000e-06 0 0 0 3.301193e+01 2.151836e-01 1.080940e+01 9.511580e+01 -1.797556e+01 1.023170e+02 -5.118774e-09 NaN -3.503586e-08 0 0 0 -3.098619e+01 -2.346098e+01 4.112546e+01 -1.091787e+02 1.399118e+01 NaN NaN NaN 1.269106e-07 4.584703e-01 1.453079e+00 -6.206852e-03 0 0 -1.055252e-07 
0 0 0 1.148590e+00 2.022765e-02 -1.239450e+01 -2.735288e+00 1.043270e+01 4.969409e-01 2.076280e+00 -1.185750e+01 -1.275469e-01 0 0 6.843487e-08 -1.621503e+00 1.145390e+01 3.978371e-01 2.497900e+00 -1.560290e+01 4.294510e-01 0 0 2.836939e-08 -2.674381e-08 0 -2.200000e-05 0 0 0 3.297613e+01 -6.254704e+00 9.109820e-01 1.032070e+02 -1.572060e+01 1.209100e+02 1.027548e-07 -3.267834e-08 -3.770132e-09 0 0 0 -3.160010e+01 -2.874930e+01 4.474163e+01 -1.098574e+02 1.212500e+01 NaN 1.766148e-08 NaN NaN 3.031634e-01 1.565433e+00 -3.465075e-03 0 0 NaN 
0 0 0 1.065849e+00 -8.024666e-01 -1.179950e+01 -2.857169e+00 1.146608e+01 5.695270e-01 2.164950e+00 -1.172530e+01 -1.303799e-01 0 0 NaN -1.965894e+00 1.238860e+01 2.598160e-01 1.930396e+00 -1.471520e+01 6.155100e-01 0 0 6.417772e-09 -2.107954e-07 2.718774e-07 -5.900000e-05 0 0 0 3.085282e+01 -1.448310e+01 -1.288782e+01 1.102800e+02 -1.327121e+01 1.356620e+02 NaN -5.840311e-09 -2.341400e-10 0 0 0 -2.810907e+01 -3.313250e+01 5.122457e+01 -1.124202e+02 7.338100e+00 2.203142e+01 4.188579e-08 7.316691e-08 NaN 2.410586e-01 1.515018e+00 -6.674852e-03 0 0 NaN 
0 0 0 7.627684e-01 -4.272120e-01 -1.276052e+01 -2.909211e+00 1.077713e+01 5.443160e-01 2.642770e+00 -1.125715e+01 -4.272100e-02 0 0 NaN -5.567810e-01 1.125140e+01 4.037410e-01 3.287046e+00 -1.367722e+01 6.599696e-01 0 0 1.670444e-08 4.783806e-07 -1.360024e-06 -7.881510e-06 0 0 0 2.818397e+01 -2.198708e+01 -2.673735e+01 1.177720e+02 -1.330915e+01 1.456180e+02 NaN -1.585880e-07 -1.035660e-08 0 0 0 -1.997476e+01 -3.962430e+01 6.503943e+01 -1.134737e+02 5.159769e-01 NaN 4.032979e-08 -9.090909e-08 8.963709e-08 5.990000e-02 1.444554e+00 -8.222487e-03 0 0 -1.376603e-07 
